<svg width="13" height="13" viewBox="0 0 13 13" fill="none" xmlns="http://www.w3.org/2000/svg">
<path id="arrow-right" d="M7.11794 12.5278L12.4336 7.21216C12.6906 6.95784 12.6906 6.54224 12.4336 6.28519L7.11794 0.972322C6.86365 0.715281 6.44802 0.715281 6.19101 0.972322L5.58397 1.57936C5.32148 1.83912 5.32693 2.26295 5.59492 2.51724L8.88983 5.65629H1.03125C0.667583 5.65629 0.375 5.94887 0.375 6.31254V7.18754C0.375 7.5512 0.667583 7.84378 1.03125 7.84378H8.88983L5.59492 10.9828C5.32968 11.2371 5.32421 11.661 5.58397 11.9207L6.19101 12.5278C6.4453 12.7848 6.86093 12.7848 7.11794 12.5278Z" fill="#36B37E"/>
</svg>
